<mxfile host="app.diagrams.net" modified="2023-06-07T08:06:37.412Z" agent="Mozilla/5.0 (Windows NT 10.0; Win64; x64) AppleWebKit/537.36 (KHTML, like Gecko) Chrome/113.0.0.0 Safari/537.36" etag="JUN-0irgVS4PWXSTpEDo" version="21.3.7" type="github">
  <diagram name="第 1 页" id="5eLNra7Sz6NAYM1fffOi">
    <mxGraphModel dx="1728" dy="945" grid="0" gridSize="10" guides="1" tooltips="1" connect="1" arrows="1" fold="1" page="0" pageScale="1" pageWidth="827" pageHeight="1169" math="0" shadow="0">
      <root>
        <mxCell id="0" />
        <mxCell id="1" parent="0" />
        <mxCell id="8ScPhK4YGc1OVkPx8WsI-17" value="16384" style="rounded=0;whiteSpace=wrap;html=1;" vertex="1" parent="1">
          <mxGeometry x="830" y="438" width="280" height="39" as="geometry" />
        </mxCell>
        <mxCell id="AkFXyGxMT2zVb7DkQITq-26" style="edgeStyle=orthogonalEdgeStyle;rounded=0;orthogonalLoop=1;jettySize=auto;html=1;entryX=0.035;entryY=-0.02;entryDx=0;entryDy=0;entryPerimeter=0;" parent="1" source="AkFXyGxMT2zVb7DkQITq-1" target="AkFXyGxMT2zVb7DkQITq-10" edge="1">
          <mxGeometry relative="1" as="geometry">
            <Array as="points">
              <mxPoint x="140" y="50" />
              <mxPoint x="140" y="50" />
            </Array>
          </mxGeometry>
        </mxCell>
        <mxCell id="AkFXyGxMT2zVb7DkQITq-30" style="edgeStyle=orthogonalEdgeStyle;rounded=0;orthogonalLoop=1;jettySize=auto;html=1;entryX=0.435;entryY=0;entryDx=0;entryDy=0;entryPerimeter=0;" parent="1" source="AkFXyGxMT2zVb7DkQITq-1" target="AkFXyGxMT2zVb7DkQITq-6" edge="1">
          <mxGeometry relative="1" as="geometry" />
        </mxCell>
        <mxCell id="AkFXyGxMT2zVb7DkQITq-1" value="C++ Application" style="rounded=0;whiteSpace=wrap;html=1;" parent="1" vertex="1">
          <mxGeometry x="80" y="20" width="440" height="30" as="geometry" />
        </mxCell>
        <mxCell id="AkFXyGxMT2zVb7DkQITq-2" value="tcmalloc CentralCache / jemalloc arena&amp;nbsp;" style="rounded=0;whiteSpace=wrap;html=1;" parent="1" vertex="1">
          <mxGeometry x="200" y="545" width="360" height="30" as="geometry" />
        </mxCell>
        <mxCell id="AkFXyGxMT2zVb7DkQITq-4" value="" style="endArrow=classic;html=1;rounded=0;entryX=0.036;entryY=-0.09;entryDx=0;entryDy=0;entryPerimeter=0;exitX=0.036;exitY=0.98;exitDx=0;exitDy=0;exitPerimeter=0;" parent="1" source="AkFXyGxMT2zVb7DkQITq-1" target="AkFXyGxMT2zVb7DkQITq-12" edge="1">
          <mxGeometry width="50" height="50" relative="1" as="geometry">
            <mxPoint x="127" y="52" as="sourcePoint" />
            <mxPoint x="277" y="360" as="targetPoint" />
          </mxGeometry>
        </mxCell>
        <mxCell id="AkFXyGxMT2zVb7DkQITq-31" style="edgeStyle=orthogonalEdgeStyle;rounded=0;orthogonalLoop=1;jettySize=auto;html=1;entryX=0.314;entryY=-0.081;entryDx=0;entryDy=0;entryPerimeter=0;" parent="1" source="AkFXyGxMT2zVb7DkQITq-6" target="AkFXyGxMT2zVb7DkQITq-8" edge="1">
          <mxGeometry relative="1" as="geometry">
            <Array as="points">
              <mxPoint x="380" y="100" />
              <mxPoint x="380" y="100" />
            </Array>
          </mxGeometry>
        </mxCell>
        <mxCell id="AkFXyGxMT2zVb7DkQITq-6" value="C++ [custom] std::allocator for containers" style="rounded=0;whiteSpace=wrap;html=1;" parent="1" vertex="1">
          <mxGeometry x="200" y="70" width="230" height="30" as="geometry" />
        </mxCell>
        <mxCell id="U2nM21W-mly9Kpd_xmQU-15" style="edgeStyle=orthogonalEdgeStyle;rounded=0;orthogonalLoop=1;jettySize=auto;html=1;exitX=0.445;exitY=0.005;exitDx=0;exitDy=0;exitPerimeter=0;" parent="1" source="AkFXyGxMT2zVb7DkQITq-7" edge="1">
          <mxGeometry relative="1" as="geometry">
            <mxPoint x="360" y="440" as="targetPoint" />
          </mxGeometry>
        </mxCell>
        <mxCell id="AkFXyGxMT2zVb7DkQITq-7" value="thread cache" style="rounded=0;whiteSpace=wrap;html=1;" parent="1" vertex="1">
          <mxGeometry x="200" y="477" width="361" height="30" as="geometry" />
        </mxCell>
        <mxCell id="AkFXyGxMT2zVb7DkQITq-29" style="edgeStyle=orthogonalEdgeStyle;rounded=0;orthogonalLoop=1;jettySize=auto;html=1;entryX=0.89;entryY=-0.052;entryDx=0;entryDy=0;entryPerimeter=0;" parent="1" source="AkFXyGxMT2zVb7DkQITq-8" target="AkFXyGxMT2zVb7DkQITq-12" edge="1">
          <mxGeometry relative="1" as="geometry">
            <Array as="points">
              <mxPoint x="472" y="160" />
              <mxPoint x="472" y="160" />
            </Array>
          </mxGeometry>
        </mxCell>
        <mxCell id="AkFXyGxMT2zVb7DkQITq-32" style="edgeStyle=orthogonalEdgeStyle;rounded=0;orthogonalLoop=1;jettySize=auto;html=1;entryX=0.94;entryY=-0.15;entryDx=0;entryDy=0;entryPerimeter=0;" parent="1" source="AkFXyGxMT2zVb7DkQITq-8" target="AkFXyGxMT2zVb7DkQITq-10" edge="1">
          <mxGeometry relative="1" as="geometry">
            <Array as="points">
              <mxPoint x="440" y="160" />
              <mxPoint x="440" y="160" />
            </Array>
          </mxGeometry>
        </mxCell>
        <mxCell id="AkFXyGxMT2zVb7DkQITq-8" value="C++ std::pmr::memory_resource" style="rounded=0;whiteSpace=wrap;html=1;" parent="1" vertex="1">
          <mxGeometry x="320" y="130" width="190" height="30" as="geometry" />
        </mxCell>
        <mxCell id="AkFXyGxMT2zVb7DkQITq-9" value="C++ new/delete expression" style="rounded=0;whiteSpace=wrap;html=1;" parent="1" vertex="1">
          <mxGeometry x="150" y="130" width="150" height="30" as="geometry" />
        </mxCell>
        <mxCell id="AkFXyGxMT2zVb7DkQITq-28" style="edgeStyle=orthogonalEdgeStyle;rounded=0;orthogonalLoop=1;jettySize=auto;html=1;entryX=0.465;entryY=-0.068;entryDx=0;entryDy=0;entryPerimeter=0;" parent="1" source="AkFXyGxMT2zVb7DkQITq-10" target="AkFXyGxMT2zVb7DkQITq-12" edge="1">
          <mxGeometry relative="1" as="geometry" />
        </mxCell>
        <mxCell id="AkFXyGxMT2zVb7DkQITq-10" value="CRT: malloc/free" style="rounded=0;whiteSpace=wrap;html=1;" parent="1" vertex="1">
          <mxGeometry x="120" y="250" width="330" height="20" as="geometry" />
        </mxCell>
        <mxCell id="AkFXyGxMT2zVb7DkQITq-11" value="C++ global/class new/delete operator" style="rounded=0;whiteSpace=wrap;html=1;" parent="1" vertex="1">
          <mxGeometry x="150" y="190" width="250" height="30" as="geometry" />
        </mxCell>
        <mxCell id="AkFXyGxMT2zVb7DkQITq-12" value="OS API&lt;br&gt;Linux: sbrk, mmap&lt;br&gt;Windows: HeapAllocal, VirtualAlloc" style="rounded=0;whiteSpace=wrap;html=1;" parent="1" vertex="1">
          <mxGeometry x="80" y="300" width="440" height="50" as="geometry" />
        </mxCell>
        <mxCell id="AkFXyGxMT2zVb7DkQITq-14" value="" style="endArrow=classic;html=1;rounded=0;exitX=0.033;exitY=1.1;exitDx=0;exitDy=0;exitPerimeter=0;" parent="1" edge="1">
          <mxGeometry width="50" height="50" relative="1" as="geometry">
            <mxPoint x="169" y="50" as="sourcePoint" />
            <mxPoint x="170" y="130" as="targetPoint" />
          </mxGeometry>
        </mxCell>
        <mxCell id="AkFXyGxMT2zVb7DkQITq-15" value="" style="endArrow=classic;html=1;rounded=0;exitX=0.033;exitY=1.1;exitDx=0;exitDy=0;exitPerimeter=0;" parent="1" edge="1">
          <mxGeometry width="50" height="50" relative="1" as="geometry">
            <mxPoint x="170" y="160" as="sourcePoint" />
            <mxPoint x="170" y="190" as="targetPoint" />
          </mxGeometry>
        </mxCell>
        <mxCell id="AkFXyGxMT2zVb7DkQITq-16" value="" style="endArrow=classic;html=1;rounded=0;entryX=0.15;entryY=-0.027;entryDx=0;entryDy=0;entryPerimeter=0;" parent="1" target="AkFXyGxMT2zVb7DkQITq-10" edge="1">
          <mxGeometry width="50" height="50" relative="1" as="geometry">
            <mxPoint x="170" y="220" as="sourcePoint" />
            <mxPoint x="126" y="346" as="targetPoint" />
          </mxGeometry>
        </mxCell>
        <mxCell id="AkFXyGxMT2zVb7DkQITq-18" value="" style="endArrow=classic;html=1;rounded=0;exitX=0.47;exitY=0.98;exitDx=0;exitDy=0;exitPerimeter=0;entryX=0.63;entryY=-0.067;entryDx=0;entryDy=0;entryPerimeter=0;" parent="1" source="AkFXyGxMT2zVb7DkQITq-6" target="AkFXyGxMT2zVb7DkQITq-11" edge="1">
          <mxGeometry width="50" height="50" relative="1" as="geometry">
            <mxPoint x="150" y="170" as="sourcePoint" />
            <mxPoint x="150" y="200" as="targetPoint" />
            <Array as="points" />
          </mxGeometry>
        </mxCell>
        <mxCell id="AkFXyGxMT2zVb7DkQITq-21" value="" style="endArrow=classic;html=1;rounded=0;exitX=0.433;exitY=1.117;exitDx=0;exitDy=0;exitPerimeter=0;" parent="1" edge="1">
          <mxGeometry width="50" height="50" relative="1" as="geometry">
            <mxPoint x="471" y="50" as="sourcePoint" />
            <mxPoint x="470" y="130" as="targetPoint" />
          </mxGeometry>
        </mxCell>
        <mxCell id="AkFXyGxMT2zVb7DkQITq-22" value="" style="endArrow=classic;html=1;rounded=0;exitX=0.433;exitY=1.117;exitDx=0;exitDy=0;exitPerimeter=0;" parent="1" edge="1">
          <mxGeometry width="50" height="50" relative="1" as="geometry">
            <mxPoint x="381" y="160" as="sourcePoint" />
            <mxPoint x="380" y="190" as="targetPoint" />
          </mxGeometry>
        </mxCell>
        <mxCell id="AkFXyGxMT2zVb7DkQITq-34" style="edgeStyle=orthogonalEdgeStyle;rounded=0;orthogonalLoop=1;jettySize=auto;html=1;entryX=1;entryY=0.75;entryDx=0;entryDy=0;" parent="1" source="AkFXyGxMT2zVb7DkQITq-8" target="AkFXyGxMT2zVb7DkQITq-8" edge="1">
          <mxGeometry relative="1" as="geometry">
            <Array as="points">
              <mxPoint x="530" y="139" />
              <mxPoint x="530" y="152" />
            </Array>
          </mxGeometry>
        </mxCell>
        <mxCell id="U2nM21W-mly9Kpd_xmQU-11" style="edgeStyle=orthogonalEdgeStyle;rounded=0;orthogonalLoop=1;jettySize=auto;html=1;entryX=0.582;entryY=-0.014;entryDx=0;entryDy=0;entryPerimeter=0;" parent="1" target="AkFXyGxMT2zVb7DkQITq-7" edge="1">
          <mxGeometry relative="1" as="geometry">
            <mxPoint x="410" y="440" as="sourcePoint" />
            <mxPoint x="410" y="470" as="targetPoint" />
          </mxGeometry>
        </mxCell>
        <mxCell id="U2nM21W-mly9Kpd_xmQU-1" value="Application" style="rounded=0;whiteSpace=wrap;html=1;" parent="1" vertex="1">
          <mxGeometry x="200" y="408" width="360" height="30" as="geometry" />
        </mxCell>
        <mxCell id="U2nM21W-mly9Kpd_xmQU-2" value="OS&amp;nbsp;" style="rounded=0;whiteSpace=wrap;html=1;" parent="1" vertex="1">
          <mxGeometry x="200" y="679" width="360" height="31" as="geometry" />
        </mxCell>
        <mxCell id="U2nM21W-mly9Kpd_xmQU-4" value="page allocator" style="rounded=0;whiteSpace=wrap;html=1;" parent="1" vertex="1">
          <mxGeometry x="200" y="612" width="360" height="30" as="geometry" />
        </mxCell>
        <mxCell id="U2nM21W-mly9Kpd_xmQU-12" style="edgeStyle=orthogonalEdgeStyle;rounded=0;orthogonalLoop=1;jettySize=auto;html=1;entryX=0.582;entryY=-0.014;entryDx=0;entryDy=0;entryPerimeter=0;" parent="1" edge="1">
          <mxGeometry relative="1" as="geometry">
            <mxPoint x="410" y="508.42" as="sourcePoint" />
            <mxPoint x="410.1020000000001" y="545" as="targetPoint" />
          </mxGeometry>
        </mxCell>
        <mxCell id="U2nM21W-mly9Kpd_xmQU-13" style="edgeStyle=orthogonalEdgeStyle;rounded=0;orthogonalLoop=1;jettySize=auto;html=1;entryX=0.582;entryY=-0.014;entryDx=0;entryDy=0;entryPerimeter=0;fontStyle=1" parent="1" edge="1">
          <mxGeometry relative="1" as="geometry">
            <mxPoint x="410" y="575.0000000000001" as="sourcePoint" />
            <mxPoint x="410.1020000000001" y="611.58" as="targetPoint" />
          </mxGeometry>
        </mxCell>
        <mxCell id="U2nM21W-mly9Kpd_xmQU-14" style="edgeStyle=orthogonalEdgeStyle;rounded=0;orthogonalLoop=1;jettySize=auto;html=1;entryX=0.582;entryY=-0.014;entryDx=0;entryDy=0;entryPerimeter=0;" parent="1" edge="1">
          <mxGeometry relative="1" as="geometry">
            <mxPoint x="410" y="642.4200000000001" as="sourcePoint" />
            <mxPoint x="410.1020000000001" y="679" as="targetPoint" />
          </mxGeometry>
        </mxCell>
        <mxCell id="U2nM21W-mly9Kpd_xmQU-16" style="edgeStyle=orthogonalEdgeStyle;rounded=0;orthogonalLoop=1;jettySize=auto;html=1;exitX=0.445;exitY=0.005;exitDx=0;exitDy=0;exitPerimeter=0;" parent="1" edge="1">
          <mxGeometry relative="1" as="geometry">
            <mxPoint x="360" y="507.8" as="targetPoint" />
            <mxPoint x="360.645" y="544.9499999999999" as="sourcePoint" />
          </mxGeometry>
        </mxCell>
        <mxCell id="U2nM21W-mly9Kpd_xmQU-17" style="edgeStyle=orthogonalEdgeStyle;rounded=0;orthogonalLoop=1;jettySize=auto;html=1;exitX=0.445;exitY=0.005;exitDx=0;exitDy=0;exitPerimeter=0;" parent="1" edge="1">
          <mxGeometry relative="1" as="geometry">
            <mxPoint x="360" y="574.8" as="targetPoint" />
            <mxPoint x="360.645" y="611.9499999999999" as="sourcePoint" />
          </mxGeometry>
        </mxCell>
        <mxCell id="U2nM21W-mly9Kpd_xmQU-21" style="edgeStyle=orthogonalEdgeStyle;rounded=0;orthogonalLoop=1;jettySize=auto;html=1;exitX=0.445;exitY=0.005;exitDx=0;exitDy=0;exitPerimeter=0;" parent="1" edge="1">
          <mxGeometry relative="1" as="geometry">
            <mxPoint x="360" y="642" as="targetPoint" />
            <mxPoint x="360.645" y="679.1499999999999" as="sourcePoint" />
          </mxGeometry>
        </mxCell>
        <mxCell id="TOkZMFtrL8VsHahPKznk-24" style="edgeStyle=orthogonalEdgeStyle;rounded=0;orthogonalLoop=1;jettySize=auto;html=1;" parent="1" source="TOkZMFtrL8VsHahPKznk-3" target="TOkZMFtrL8VsHahPKznk-14" edge="1">
          <mxGeometry relative="1" as="geometry">
            <Array as="points">
              <mxPoint x="186" y="801" />
              <mxPoint x="186" y="801" />
            </Array>
          </mxGeometry>
        </mxCell>
        <mxCell id="TOkZMFtrL8VsHahPKznk-25" style="edgeStyle=orthogonalEdgeStyle;rounded=0;orthogonalLoop=1;jettySize=auto;html=1;" parent="1" source="TOkZMFtrL8VsHahPKznk-3" target="TOkZMFtrL8VsHahPKznk-12" edge="1">
          <mxGeometry relative="1" as="geometry">
            <Array as="points">
              <mxPoint x="439" y="827" />
              <mxPoint x="439" y="827" />
            </Array>
          </mxGeometry>
        </mxCell>
        <mxCell id="TOkZMFtrL8VsHahPKznk-3" value="C Application" style="rounded=0;whiteSpace=wrap;html=1;" parent="1" vertex="1">
          <mxGeometry x="110" y="753" width="440" height="30" as="geometry" />
        </mxCell>
        <mxCell id="TOkZMFtrL8VsHahPKznk-5" style="edgeStyle=orthogonalEdgeStyle;rounded=0;orthogonalLoop=1;jettySize=auto;html=1;entryX=0.314;entryY=-0.081;entryDx=0;entryDy=0;entryPerimeter=0;" parent="1" edge="1">
          <mxGeometry relative="1" as="geometry">
            <Array as="points">
              <mxPoint x="410" y="833" />
              <mxPoint x="410" y="833" />
            </Array>
            <mxPoint x="409.65999999999985" y="833" as="sourcePoint" />
          </mxGeometry>
        </mxCell>
        <mxCell id="TOkZMFtrL8VsHahPKznk-26" style="edgeStyle=orthogonalEdgeStyle;rounded=0;orthogonalLoop=1;jettySize=auto;html=1;entryX=0.75;entryY=0;entryDx=0;entryDy=0;" parent="1" source="TOkZMFtrL8VsHahPKznk-12" target="TOkZMFtrL8VsHahPKznk-14" edge="1">
          <mxGeometry relative="1" as="geometry">
            <Array as="points">
              <mxPoint x="440" y="889" />
              <mxPoint x="440" y="889" />
            </Array>
          </mxGeometry>
        </mxCell>
        <mxCell id="TOkZMFtrL8VsHahPKznk-12" value="CRT: &lt;b&gt;&lt;font color=&quot;#ff0000&quot;&gt;malloc/free&lt;/font&gt;&lt;/b&gt;" style="rounded=0;whiteSpace=wrap;html=1;" parent="1" vertex="1">
          <mxGeometry x="335" y="836" width="215" height="36" as="geometry" />
        </mxCell>
        <mxCell id="TOkZMFtrL8VsHahPKznk-14" value="OS API&lt;br&gt;Linux: &lt;font color=&quot;#ff0000&quot;&gt;&lt;b&gt;sbrk, mmap&lt;/b&gt;&lt;/font&gt;&lt;br&gt;Windows: HeapAllocal, VirtualAlloc" style="rounded=0;whiteSpace=wrap;html=1;" parent="1" vertex="1">
          <mxGeometry x="110" y="910" width="440" height="50" as="geometry" />
        </mxCell>
        <mxCell id="8ScPhK4YGc1OVkPx8WsI-1" value="page" style="rounded=0;whiteSpace=wrap;html=1;" vertex="1" parent="1">
          <mxGeometry x="848" y="363" width="70" height="39" as="geometry" />
        </mxCell>
        <mxCell id="8ScPhK4YGc1OVkPx8WsI-2" value="page" style="rounded=0;whiteSpace=wrap;html=1;" vertex="1" parent="1">
          <mxGeometry x="918" y="363" width="70" height="39" as="geometry" />
        </mxCell>
        <mxCell id="8ScPhK4YGc1OVkPx8WsI-3" value="page" style="rounded=0;whiteSpace=wrap;html=1;" vertex="1" parent="1">
          <mxGeometry x="988" y="363" width="70" height="39" as="geometry" />
        </mxCell>
        <mxCell id="8ScPhK4YGc1OVkPx8WsI-4" value="page" style="rounded=0;whiteSpace=wrap;html=1;" vertex="1" parent="1">
          <mxGeometry x="1058" y="363" width="70" height="39" as="geometry" />
        </mxCell>
        <mxCell id="8ScPhK4YGc1OVkPx8WsI-5" value="page" style="rounded=0;whiteSpace=wrap;html=1;" vertex="1" parent="1">
          <mxGeometry x="1128" y="363" width="70" height="39" as="geometry" />
        </mxCell>
        <mxCell id="8ScPhK4YGc1OVkPx8WsI-6" value="page" style="rounded=0;whiteSpace=wrap;html=1;" vertex="1" parent="1">
          <mxGeometry x="1198" y="363" width="70" height="39" as="geometry" />
        </mxCell>
        <mxCell id="8ScPhK4YGc1OVkPx8WsI-7" value="page" style="rounded=0;whiteSpace=wrap;html=1;" vertex="1" parent="1">
          <mxGeometry x="1268" y="363" width="70" height="39" as="geometry" />
        </mxCell>
        <mxCell id="8ScPhK4YGc1OVkPx8WsI-8" value="page" style="rounded=0;whiteSpace=wrap;html=1;" vertex="1" parent="1">
          <mxGeometry x="1338" y="363" width="70" height="39" as="geometry" />
        </mxCell>
        <mxCell id="8ScPhK4YGc1OVkPx8WsI-23" value="" style="rounded=0;whiteSpace=wrap;html=1;" vertex="1" parent="1">
          <mxGeometry x="1145" y="437" width="351" height="40" as="geometry" />
        </mxCell>
        <mxCell id="8ScPhK4YGc1OVkPx8WsI-24" value="" style="rounded=0;whiteSpace=wrap;html=1;" vertex="1" parent="1">
          <mxGeometry x="848" y="591" width="41" height="40" as="geometry" />
        </mxCell>
        <mxCell id="8ScPhK4YGc1OVkPx8WsI-25" value="" style="rounded=0;whiteSpace=wrap;html=1;" vertex="1" parent="1">
          <mxGeometry x="902" y="591" width="54" height="40" as="geometry" />
        </mxCell>
        <mxCell id="8ScPhK4YGc1OVkPx8WsI-26" value="" style="rounded=0;whiteSpace=wrap;html=1;" vertex="1" parent="1">
          <mxGeometry x="956" y="591" width="54" height="40" as="geometry" />
        </mxCell>
        <mxCell id="8ScPhK4YGc1OVkPx8WsI-27" value="" style="rounded=0;whiteSpace=wrap;html=1;" vertex="1" parent="1">
          <mxGeometry x="1010" y="591" width="54" height="40" as="geometry" />
        </mxCell>
        <mxCell id="8ScPhK4YGc1OVkPx8WsI-32" value="" style="rounded=0;whiteSpace=wrap;html=1;" vertex="1" parent="1">
          <mxGeometry x="848" y="687" width="45" height="40" as="geometry" />
        </mxCell>
        <mxCell id="8ScPhK4YGc1OVkPx8WsI-33" value="" style="rounded=0;whiteSpace=wrap;html=1;" vertex="1" parent="1">
          <mxGeometry x="889" y="639" width="41" height="40" as="geometry" />
        </mxCell>
        <mxCell id="8ScPhK4YGc1OVkPx8WsI-34" value="" style="rounded=0;whiteSpace=wrap;html=1;" vertex="1" parent="1">
          <mxGeometry x="930" y="639" width="41" height="40" as="geometry" />
        </mxCell>
        <mxCell id="8ScPhK4YGc1OVkPx8WsI-35" value="" style="rounded=0;whiteSpace=wrap;html=1;" vertex="1" parent="1">
          <mxGeometry x="971" y="639" width="41" height="40" as="geometry" />
        </mxCell>
        <mxCell id="8ScPhK4YGc1OVkPx8WsI-36" value="" style="rounded=0;whiteSpace=wrap;html=1;" vertex="1" parent="1">
          <mxGeometry x="1012" y="639" width="41" height="40" as="geometry" />
        </mxCell>
        <mxCell id="8ScPhK4YGc1OVkPx8WsI-37" value="" style="rounded=0;whiteSpace=wrap;html=1;" vertex="1" parent="1">
          <mxGeometry x="1053" y="639" width="41" height="40" as="geometry" />
        </mxCell>
        <mxCell id="8ScPhK4YGc1OVkPx8WsI-38" value="" style="rounded=0;whiteSpace=wrap;html=1;" vertex="1" parent="1">
          <mxGeometry x="1094" y="639" width="41" height="40" as="geometry" />
        </mxCell>
        <mxCell id="8ScPhK4YGc1OVkPx8WsI-39" value="" style="rounded=0;whiteSpace=wrap;html=1;" vertex="1" parent="1">
          <mxGeometry x="1135" y="639" width="41" height="40" as="geometry" />
        </mxCell>
        <mxCell id="8ScPhK4YGc1OVkPx8WsI-40" value="" style="rounded=0;whiteSpace=wrap;html=1;" vertex="1" parent="1">
          <mxGeometry x="893" y="687" width="45" height="40" as="geometry" />
        </mxCell>
        <mxCell id="8ScPhK4YGc1OVkPx8WsI-41" value="" style="rounded=0;whiteSpace=wrap;html=1;" vertex="1" parent="1">
          <mxGeometry x="938" y="687" width="45" height="40" as="geometry" />
        </mxCell>
        <mxCell id="8ScPhK4YGc1OVkPx8WsI-42" value="" style="rounded=0;whiteSpace=wrap;html=1;" vertex="1" parent="1">
          <mxGeometry x="983" y="687" width="45" height="40" as="geometry" />
        </mxCell>
        <mxCell id="8ScPhK4YGc1OVkPx8WsI-43" value="" style="rounded=0;whiteSpace=wrap;html=1;" vertex="1" parent="1">
          <mxGeometry x="1028" y="687" width="45" height="40" as="geometry" />
        </mxCell>
        <mxCell id="8ScPhK4YGc1OVkPx8WsI-44" value="" style="rounded=0;whiteSpace=wrap;html=1;" vertex="1" parent="1">
          <mxGeometry x="1073" y="687" width="45" height="40" as="geometry" />
        </mxCell>
        <mxCell id="8ScPhK4YGc1OVkPx8WsI-45" value="" style="rounded=0;whiteSpace=wrap;html=1;" vertex="1" parent="1">
          <mxGeometry x="1118" y="687" width="45" height="40" as="geometry" />
        </mxCell>
        <mxCell id="8ScPhK4YGc1OVkPx8WsI-46" value="" style="rounded=0;whiteSpace=wrap;html=1;" vertex="1" parent="1">
          <mxGeometry x="1163" y="687" width="45" height="40" as="geometry" />
        </mxCell>
        <mxCell id="8ScPhK4YGc1OVkPx8WsI-47" value="" style="rounded=0;whiteSpace=wrap;html=1;" vertex="1" parent="1">
          <mxGeometry x="848" y="732" width="43" height="40" as="geometry" />
        </mxCell>
        <mxCell id="8ScPhK4YGc1OVkPx8WsI-48" value="" style="rounded=0;whiteSpace=wrap;html=1;" vertex="1" parent="1">
          <mxGeometry x="891" y="732" width="43" height="40" as="geometry" />
        </mxCell>
        <mxCell id="8ScPhK4YGc1OVkPx8WsI-49" value="" style="rounded=0;whiteSpace=wrap;html=1;" vertex="1" parent="1">
          <mxGeometry x="934" y="732" width="43" height="40" as="geometry" />
        </mxCell>
        <mxCell id="8ScPhK4YGc1OVkPx8WsI-50" value="" style="rounded=0;whiteSpace=wrap;html=1;" vertex="1" parent="1">
          <mxGeometry x="977" y="732" width="43" height="40" as="geometry" />
        </mxCell>
        <mxCell id="8ScPhK4YGc1OVkPx8WsI-51" value="" style="rounded=0;whiteSpace=wrap;html=1;" vertex="1" parent="1">
          <mxGeometry x="1020" y="732" width="43" height="40" as="geometry" />
        </mxCell>
        <mxCell id="8ScPhK4YGc1OVkPx8WsI-52" value="" style="rounded=0;whiteSpace=wrap;html=1;" vertex="1" parent="1">
          <mxGeometry x="1063" y="732" width="43" height="40" as="geometry" />
        </mxCell>
        <mxCell id="8ScPhK4YGc1OVkPx8WsI-53" value="" style="rounded=0;whiteSpace=wrap;html=1;" vertex="1" parent="1">
          <mxGeometry x="1106" y="732" width="43" height="40" as="geometry" />
        </mxCell>
        <mxCell id="8ScPhK4YGc1OVkPx8WsI-54" value="" style="rounded=0;whiteSpace=wrap;html=1;" vertex="1" parent="1">
          <mxGeometry x="1149" y="732" width="43" height="40" as="geometry" />
        </mxCell>
        <mxCell id="8ScPhK4YGc1OVkPx8WsI-55" value="2560" style="rounded=0;whiteSpace=wrap;html=1;" vertex="1" parent="1">
          <mxGeometry x="1145" y="437" width="43" height="40" as="geometry" />
        </mxCell>
        <mxCell id="8ScPhK4YGc1OVkPx8WsI-56" value="2560" style="rounded=0;whiteSpace=wrap;html=1;" vertex="1" parent="1">
          <mxGeometry x="1188" y="437" width="43" height="40" as="geometry" />
        </mxCell>
        <mxCell id="8ScPhK4YGc1OVkPx8WsI-57" value="2560" style="rounded=0;whiteSpace=wrap;html=1;" vertex="1" parent="1">
          <mxGeometry x="1231" y="437" width="43" height="40" as="geometry" />
        </mxCell>
        <mxCell id="8ScPhK4YGc1OVkPx8WsI-58" value="2560" style="rounded=0;whiteSpace=wrap;html=1;" vertex="1" parent="1">
          <mxGeometry x="1274" y="437" width="43" height="40" as="geometry" />
        </mxCell>
        <mxCell id="8ScPhK4YGc1OVkPx8WsI-59" value="2560" style="rounded=0;whiteSpace=wrap;html=1;" vertex="1" parent="1">
          <mxGeometry x="1317" y="437" width="43" height="40" as="geometry" />
        </mxCell>
        <mxCell id="8ScPhK4YGc1OVkPx8WsI-60" value="2560" style="rounded=0;whiteSpace=wrap;html=1;" vertex="1" parent="1">
          <mxGeometry x="1360" y="437" width="46" height="40" as="geometry" />
        </mxCell>
        <mxCell id="8ScPhK4YGc1OVkPx8WsI-61" value="2560" style="rounded=0;whiteSpace=wrap;html=1;" vertex="1" parent="1">
          <mxGeometry x="1405" y="437" width="45" height="40" as="geometry" />
        </mxCell>
        <mxCell id="8ScPhK4YGc1OVkPx8WsI-62" value="2560" style="rounded=0;whiteSpace=wrap;html=1;" vertex="1" parent="1">
          <mxGeometry x="1450" y="437" width="46" height="40" as="geometry" />
        </mxCell>
        <mxCell id="8ScPhK4YGc1OVkPx8WsI-63" value="page" style="rounded=0;whiteSpace=wrap;html=1;" vertex="1" parent="1">
          <mxGeometry x="1408" y="363" width="70" height="39" as="geometry" />
        </mxCell>
        <mxCell id="8ScPhK4YGc1OVkPx8WsI-64" value="" style="endArrow=classic;html=1;rounded=0;exitX=0;exitY=1;exitDx=0;exitDy=0;entryX=0;entryY=0;entryDx=0;entryDy=0;" edge="1" parent="1" source="8ScPhK4YGc1OVkPx8WsI-1" target="8ScPhK4YGc1OVkPx8WsI-17">
          <mxGeometry width="50" height="50" relative="1" as="geometry">
            <mxPoint x="1146" y="518" as="sourcePoint" />
            <mxPoint x="1196" y="468" as="targetPoint" />
          </mxGeometry>
        </mxCell>
        <mxCell id="8ScPhK4YGc1OVkPx8WsI-65" value="" style="endArrow=classic;html=1;rounded=0;exitX=0;exitY=1;exitDx=0;exitDy=0;entryX=1;entryY=0;entryDx=0;entryDy=0;" edge="1" parent="1" source="8ScPhK4YGc1OVkPx8WsI-5" target="8ScPhK4YGc1OVkPx8WsI-17">
          <mxGeometry width="50" height="50" relative="1" as="geometry">
            <mxPoint x="858" y="412" as="sourcePoint" />
            <mxPoint x="858" y="458" as="targetPoint" />
          </mxGeometry>
        </mxCell>
        <mxCell id="8ScPhK4YGc1OVkPx8WsI-66" value="" style="endArrow=classic;html=1;rounded=0;exitX=1;exitY=1;exitDx=0;exitDy=0;entryX=0;entryY=0;entryDx=0;entryDy=0;" edge="1" parent="1" source="8ScPhK4YGc1OVkPx8WsI-4" target="8ScPhK4YGc1OVkPx8WsI-55">
          <mxGeometry width="50" height="50" relative="1" as="geometry">
            <mxPoint x="1138" y="412" as="sourcePoint" />
            <mxPoint x="1138" y="458" as="targetPoint" />
          </mxGeometry>
        </mxCell>
        <mxCell id="8ScPhK4YGc1OVkPx8WsI-67" value="" style="endArrow=classic;html=1;rounded=0;exitX=1;exitY=1;exitDx=0;exitDy=0;entryX=0;entryY=0;entryDx=0;entryDy=0;" edge="1" parent="1">
          <mxGeometry width="50" height="50" relative="1" as="geometry">
            <mxPoint x="1479" y="402" as="sourcePoint" />
            <mxPoint x="1496" y="437" as="targetPoint" />
          </mxGeometry>
        </mxCell>
        <mxCell id="8ScPhK4YGc1OVkPx8WsI-68" value="&lt;b&gt;大内存分配&lt;/b&gt; - 16384 = 4 * 4096&amp;nbsp; = 4 pages" style="text;html=1;strokeColor=none;fillColor=none;align=center;verticalAlign=middle;whiteSpace=wrap;rounded=0;" vertex="1" parent="1">
          <mxGeometry x="788" y="477" width="364" height="30" as="geometry" />
        </mxCell>
        <mxCell id="8ScPhK4YGc1OVkPx8WsI-69" value="&lt;b&gt;小内存分配 &lt;font color=&quot;#ff0000&quot;&gt;[定长]&lt;/font&gt;&lt;/b&gt;&amp;nbsp;- 8 * 2560 = 5 * 4096 = 5 pages" style="text;html=1;strokeColor=none;fillColor=none;align=center;verticalAlign=middle;whiteSpace=wrap;rounded=0;" vertex="1" parent="1">
          <mxGeometry x="1128" y="477" width="364" height="30" as="geometry" />
        </mxCell>
        <mxCell id="8ScPhK4YGc1OVkPx8WsI-70" value="page" style="rounded=0;whiteSpace=wrap;html=1;" vertex="1" parent="1">
          <mxGeometry x="778" y="363" width="70" height="39" as="geometry" />
        </mxCell>
        <mxCell id="8ScPhK4YGc1OVkPx8WsI-71" value="page" style="rounded=0;whiteSpace=wrap;html=1;" vertex="1" parent="1">
          <mxGeometry x="1478" y="363" width="70" height="39" as="geometry" />
        </mxCell>
        <mxCell id="8ScPhK4YGc1OVkPx8WsI-72" value="&lt;b&gt;页面分配器&lt;font color=&quot;#ff0000&quot;&gt; [不定长]&lt;/font&gt;&lt;/b&gt;" style="text;html=1;strokeColor=none;fillColor=none;align=center;verticalAlign=middle;whiteSpace=wrap;rounded=0;" vertex="1" parent="1">
          <mxGeometry x="1040.5" y="318" width="174" height="30" as="geometry" />
        </mxCell>
        <mxCell id="8ScPhK4YGc1OVkPx8WsI-73" value="16384" style="rounded=0;whiteSpace=wrap;html=1;" vertex="1" parent="1">
          <mxGeometry x="1387" y="695" width="280" height="39" as="geometry" />
        </mxCell>
        <mxCell id="8ScPhK4YGc1OVkPx8WsI-74" value="page" style="rounded=0;whiteSpace=wrap;html=1;" vertex="1" parent="1">
          <mxGeometry x="1405" y="620" width="70" height="39" as="geometry" />
        </mxCell>
        <mxCell id="8ScPhK4YGc1OVkPx8WsI-75" value="page" style="rounded=0;whiteSpace=wrap;html=1;" vertex="1" parent="1">
          <mxGeometry x="1475" y="620" width="70" height="39" as="geometry" />
        </mxCell>
        <mxCell id="8ScPhK4YGc1OVkPx8WsI-76" value="page" style="rounded=0;whiteSpace=wrap;html=1;" vertex="1" parent="1">
          <mxGeometry x="1545" y="620" width="70" height="39" as="geometry" />
        </mxCell>
        <mxCell id="8ScPhK4YGc1OVkPx8WsI-77" value="page" style="rounded=0;whiteSpace=wrap;html=1;" vertex="1" parent="1">
          <mxGeometry x="1615" y="620" width="70" height="39" as="geometry" />
        </mxCell>
        <mxCell id="8ScPhK4YGc1OVkPx8WsI-78" value="page" style="rounded=0;whiteSpace=wrap;html=1;" vertex="1" parent="1">
          <mxGeometry x="1685" y="620" width="70" height="39" as="geometry" />
        </mxCell>
        <mxCell id="8ScPhK4YGc1OVkPx8WsI-79" value="page" style="rounded=0;whiteSpace=wrap;html=1;" vertex="1" parent="1">
          <mxGeometry x="1755" y="620" width="70" height="39" as="geometry" />
        </mxCell>
        <mxCell id="8ScPhK4YGc1OVkPx8WsI-80" value="page" style="rounded=0;whiteSpace=wrap;html=1;" vertex="1" parent="1">
          <mxGeometry x="1825" y="620" width="70" height="39" as="geometry" />
        </mxCell>
        <mxCell id="8ScPhK4YGc1OVkPx8WsI-81" value="page" style="rounded=0;whiteSpace=wrap;html=1;" vertex="1" parent="1">
          <mxGeometry x="1895" y="620" width="70" height="39" as="geometry" />
        </mxCell>
        <mxCell id="8ScPhK4YGc1OVkPx8WsI-91" value="page" style="rounded=0;whiteSpace=wrap;html=1;" vertex="1" parent="1">
          <mxGeometry x="1965" y="620" width="70" height="39" as="geometry" />
        </mxCell>
        <mxCell id="8ScPhK4YGc1OVkPx8WsI-92" value="" style="endArrow=classic;html=1;rounded=0;exitX=0;exitY=1;exitDx=0;exitDy=0;entryX=0;entryY=0;entryDx=0;entryDy=0;" edge="1" parent="1" source="8ScPhK4YGc1OVkPx8WsI-74" target="8ScPhK4YGc1OVkPx8WsI-73">
          <mxGeometry width="50" height="50" relative="1" as="geometry">
            <mxPoint x="1703" y="775" as="sourcePoint" />
            <mxPoint x="1753" y="725" as="targetPoint" />
          </mxGeometry>
        </mxCell>
        <mxCell id="8ScPhK4YGc1OVkPx8WsI-93" value="" style="endArrow=classic;html=1;rounded=0;exitX=0;exitY=1;exitDx=0;exitDy=0;entryX=1;entryY=0;entryDx=0;entryDy=0;" edge="1" parent="1" source="8ScPhK4YGc1OVkPx8WsI-78" target="8ScPhK4YGc1OVkPx8WsI-73">
          <mxGeometry width="50" height="50" relative="1" as="geometry">
            <mxPoint x="1415" y="669" as="sourcePoint" />
            <mxPoint x="1415" y="715" as="targetPoint" />
          </mxGeometry>
        </mxCell>
        <mxCell id="8ScPhK4YGc1OVkPx8WsI-96" value="&lt;b&gt;大内存分配&lt;/b&gt; - 16384 = 4 * 4096&amp;nbsp; = 4 pages" style="text;html=1;strokeColor=none;fillColor=none;align=center;verticalAlign=middle;whiteSpace=wrap;rounded=0;" vertex="1" parent="1">
          <mxGeometry x="1345" y="734" width="364" height="30" as="geometry" />
        </mxCell>
        <mxCell id="8ScPhK4YGc1OVkPx8WsI-98" value="page" style="rounded=0;whiteSpace=wrap;html=1;" vertex="1" parent="1">
          <mxGeometry x="1335" y="620" width="70" height="39" as="geometry" />
        </mxCell>
        <mxCell id="8ScPhK4YGc1OVkPx8WsI-99" value="page" style="rounded=0;whiteSpace=wrap;html=1;" vertex="1" parent="1">
          <mxGeometry x="2035" y="620" width="70" height="39" as="geometry" />
        </mxCell>
        <mxCell id="8ScPhK4YGc1OVkPx8WsI-100" value="&lt;b&gt;页面分配器&lt;font color=&quot;#ff0000&quot;&gt; [不定长]&lt;/font&gt;&lt;/b&gt;" style="text;html=1;strokeColor=none;fillColor=none;align=center;verticalAlign=middle;whiteSpace=wrap;rounded=0;" vertex="1" parent="1">
          <mxGeometry x="1597.5" y="575" width="174" height="30" as="geometry" />
        </mxCell>
      </root>
    </mxGraphModel>
  </diagram>
</mxfile>
